<svg width="752" height="249" viewBox="0 0 752 249" fill="none" xmlns="http://www.w3.org/2000/svg">
<path d="M109.473 171.484C109.098 172.607 107.842 177.847 107.601 178.97C107.361 180.092 102.683 180.359 99.7411 180.841C96.7991 181.323 94.0485 181.623 90.3839 181.964C86.7192 182.305 79.4401 182.751 72.418 182.713C65.3959 182.674 52.5273 181.703 49.5863 181.215C46.6452 180.727 42.3706 180.153 41.7262 178.97C41.0817 177.786 40.4197 175.49 39.8547 173.73C39.2897 171.97 38.3576 169.239 38.3576 169.239C38.3576 169.239 37.5699 166.88 37.2347 165.87C36.8995 164.86 35.5349 161.48 34.2404 158.759C32.9459 156.038 31.5323 153.724 29.7489 150.525C27.9655 147.326 24.5623 141.037 22.6374 138.174C20.7125 135.311 19.4184 133.858 17.3973 131.063C15.3763 128.267 12.5316 123.748 10.2858 119.834C8.04006 115.921 7.05778 114.257 5.42005 110.478C3.78231 106.699 2.07656 101.873 1.30285 98.1266C0.546442 94.4639 0.416469 92.3115 0.195304 88.649L0.179984 88.3954C-0.0508862 84.577 -0.0689335 80.7773 0.179984 77.5415C0.428901 74.3057 0.630269 72.4823 1.30285 69.3075C1.97544 66.1326 2.62786 63.5233 3.92292 59.9505C5.21798 56.3777 6.72758 53.1604 8.04008 50.5937C9.35257 48.027 10.175 46.6238 11.783 44.2311C13.391 41.8384 14.8257 40.0004 17.0231 37.4942C19.2204 34.9879 21.1175 33.1614 23.7603 30.7571C26.4031 28.3529 27.7113 27.1212 30.4975 25.1431C33.2837 23.165 35.5226 21.9034 38.7319 20.2774C41.9412 18.6515 42.8918 18.2945 46.9663 16.909C51.0408 15.5235 54.3339 14.2982 58.5693 13.5405C62.8046 12.7828 66.2164 12.329 70.5465 12.0435C74.8766 11.7581 75.875 11.7663 80.2781 12.0435C84.6812 12.3207 87.2154 12.4996 93.0039 13.9149C98.7924 15.3301 103.867 17.303 109.473 20.2775C115.078 23.2521 117.164 24.7805 121.824 28.5116C126.485 32.2427 129.611 35.1244 133.053 39.3655C136.495 43.6067 136.864 44.6053 139.416 49.0965C140.516 51.0334 141.337 52.6473 142.046 54.206C127.296 62.0351 121.393 67.4528 109.359 78.4978L109.268 78.5816C97.1719 89.6831 88.2661 101.035 83.9164 106.584C79.5667 112.132 71.6551 124.81 71.6551 124.81C71.6551 124.81 62.8925 112.542 58.8958 107.874C54.8991 103.206 47.378 96.2657 41.3177 92.2897C35.2573 88.3137 24.8268 83.7728 24.8268 83.7728L32.5119 90.8227C32.5119 90.8227 38.0442 97.5629 41.7466 103.254C45.449 108.945 52.6387 120.658 52.6387 120.658C52.6387 120.658 59.9489 134.175 62.8205 140.074C65.6922 145.974 68.6815 149.19 68.6815 149.19L79.0404 149.072L110.18 103.162L129.027 77.9741L145.216 62.3077C146.669 66.769 148.025 73.0502 148.025 73.0502C148.025 73.0502 148.592 76.6887 148.773 79.0386C148.954 81.3885 149.07 85.0811 148.773 88.7697C148.476 92.4583 148.059 94.5097 147.276 98.1266C146.493 101.743 145.655 105.346 143.907 109.729C142.16 114.112 140.717 116.472 138.293 120.583C135.869 124.694 133.427 128.068 131.556 130.688C129.684 133.308 125.193 139.716 124.07 141.542L121.28 146.25C119.891 148.615 118.472 151.034 118.081 151.648C117.367 152.77 113.59 160.63 113.216 161.379C112.841 162.127 109.847 170.361 109.473 171.484Z" fill="#FFBF00"/>
<path d="M41.8671 188.392C42.1665 186.944 42.6157 186.582 43.3643 186.22C44.1128 185.858 47.9119 186.403 50.1016 186.582C52.2912 186.76 58.4658 187.514 64.3472 187.596C70.2287 187.677 84.5372 187.51 87.9052 187.306C91.2732 187.101 95.3911 186.944 98.7597 186.582C102.128 186.219 102.778 186.026 104 185.857C106.246 185.547 106.302 185.912 106.62 186.219C106.938 186.527 107.369 187.668 107.369 189.116C107.369 190.564 106.994 191.65 105.871 192.374C104.748 193.098 100.188 193.583 96.514 194.185C92.8397 194.786 89.6824 195.163 85.2852 195.633C80.888 196.103 71.8106 196.719 71.8106 196.719C71.8106 196.719 62.079 197.081 59.4589 197.081C56.8388 197.081 49.4278 196.936 46.7329 196.357C43.3643 195.633 42.2414 193.46 41.8671 192.374C41.4928 191.288 41.4928 190.202 41.8671 188.392Z" fill="#FFBF00"/>
<path d="M58.5355 212.943C54.7129 212.994 51.3818 212.943 48.7463 212.569C46.1107 212.195 44.6047 210.699 43.8516 209.203C43.0986 207.707 43.0986 206.098 43.0986 205.088C43.0986 204.078 43.8516 202.844 44.9812 202.47C46.1107 202.096 51.9927 202.564 55.5234 202.47C59.0541 202.376 63.8892 202.335 70.2072 202.096C76.5252 201.857 84.0777 201.191 88.6561 200.6C93.2346 200.008 98.7079 199.007 100.328 198.729C101.948 198.452 105.288 197.473 105.975 197.981C106.663 198.49 106.828 199.046 107.105 199.852C107.382 200.658 107.523 202.156 107.105 203.218C106.687 204.28 106.189 204.652 105.222 205.462C104.255 206.272 102.25 206.784 100.328 207.333C98.4056 207.881 92.5708 209.366 87.5266 210.325C82.4823 211.284 75.3641 212.319 70.9602 212.569C66.5564 212.82 62.358 212.893 58.5355 212.943Z" fill="#FFBF00"/>
<path d="M66.774 217.669C59.2127 218.042 53.9199 217.669 52.4076 217.669C50.8952 217.669 56.9441 224.004 62.6153 226.613C68.2866 229.222 70.1766 229.594 74.7133 229.594C79.2501 229.594 81.9201 228.922 87.3642 226.574C92.8083 224.226 98.2789 217.669 100.043 214.688C101.807 211.706 101.555 212.08 100.421 212.452C99.128 212.877 87.1893 215.433 82.6525 216.179C79.0231 216.775 74.3352 217.297 66.774 217.669Z" fill="#FFBF00"/>
<path d="M71.6432 182.829C71.6432 182.829 65.9732 154.87 60.4987 142.552C55.0242 130.235 39.9731 96.9426 24.8329 83.7692C41.3865 94.3016 49.2053 103.609 58.9135 118.408C68.6218 133.207 72.1736 140.429 72.1736 140.429C73.1078 138.287 87.9261 111.581 102.355 95.3158C111.93 84.522 131.832 66.2839 141.053 59.0297C150.273 51.7754 179.2 35.272 179.2 35.272C179.2 35.272 153.053 54.6966 143.584 64.1076C134.114 73.5187 129.514 79.6374 121.527 90.4043C113.54 101.171 105.236 113.589 98.0244 127.764C90.8127 141.938 84.4826 158.843 82.6572 165.486C80.8317 172.129 77.9566 182.715 77.9566 182.715L71.6432 182.829Z" fill="white"/>
<path d="M192.654 88.7188H264.984V109.536H218.183V131.114H261.033V151.627H218.183V173.964H266.807V195.086H192.654V88.7188ZM307.808 196.605C295.145 196.605 283.394 193.111 272.554 186.121L281.368 169.254C290.687 174.724 299.399 177.459 307.504 177.459C310.745 177.459 313.278 177.004 315.101 176.092C316.925 175.079 317.836 173.661 317.836 171.837C317.836 170.216 316.823 168.798 314.797 167.582C312.873 166.367 309.53 165.202 304.768 164.088C294.841 161.758 287.598 158.567 283.039 154.514C278.481 150.462 276.201 145.144 276.201 138.559C276.201 131.468 278.835 125.846 284.103 121.693C289.472 117.438 297.019 115.311 306.744 115.311C318.697 115.311 329.739 118.451 339.87 124.732L331.056 140.991C328.119 138.965 324.472 137.293 320.116 135.976C315.76 134.659 311.758 134.001 308.111 134.001C302.135 134.001 299.146 135.622 299.146 138.863C299.146 140.585 300.058 142.004 301.881 143.118C303.806 144.232 307.352 145.397 312.518 146.613C322.446 148.842 329.739 152.033 334.399 156.186C339.059 160.339 341.389 165.506 341.389 171.685C341.389 179.283 338.35 185.361 332.272 189.92C326.194 194.377 318.039 196.605 307.808 196.605ZM384.438 196.454C374.916 196.454 367.723 193.921 362.861 188.856C357.998 183.689 355.567 176.193 355.567 166.367V136.28H343.107V116.678H356.023L356.479 97.836H380.335V116.678H399.785V136.28H380.335V163.936C380.335 170.723 383.273 174.116 389.149 174.116C391.985 174.116 395.126 173.407 398.57 171.989L403.888 192.351C397.81 195.086 391.327 196.454 384.438 196.454ZM486.923 195.086H464.282L463.978 184.449C460.433 188.501 456.533 191.49 452.278 193.414C448.125 195.339 443.414 196.302 438.146 196.302C429.232 196.302 422.141 193.465 416.873 187.792C411.605 182.119 408.971 174.724 408.971 165.607V116.678H433.74V159.073C433.74 169.305 438.096 174.42 446.808 174.42C451.67 174.42 455.418 172.901 458.052 169.862C460.787 166.823 462.155 162.72 462.155 157.554V116.678H486.923V195.086ZM532.18 196.909C525.089 196.909 518.758 195.187 513.186 191.743C507.615 188.197 503.259 183.335 500.118 177.155C496.978 170.875 495.408 163.784 495.408 155.882C495.408 147.98 496.978 140.94 500.118 134.761C503.259 128.48 507.615 123.617 513.186 120.173C518.758 116.729 525.089 115.007 532.18 115.007C537.246 115.007 541.956 115.969 546.312 117.894C550.668 119.717 554.467 122.351 557.709 125.795V82.6407H582.477V195.086H559.836L559.532 184.601C556.392 188.552 552.492 191.591 547.832 193.718C543.172 195.846 537.955 196.909 532.18 196.909ZM519.872 155.882C519.872 161.758 521.645 166.569 525.191 170.318C528.736 173.964 533.345 175.788 539.018 175.788C544.59 175.788 549.149 173.964 552.694 170.318C556.341 166.569 558.164 161.758 558.164 155.882C558.164 150.007 556.392 145.245 552.846 141.598C549.3 137.85 544.691 135.976 539.018 135.976C533.345 135.976 528.736 137.85 525.191 141.598C521.645 145.245 519.872 150.007 519.872 155.882ZM632.454 197.061C623.641 197.061 615.891 195.339 609.205 191.895C602.519 188.451 597.353 183.639 593.706 177.459C590.059 171.28 588.236 164.138 588.236 156.034C588.236 148.031 589.958 140.889 593.402 134.609C596.948 128.328 601.911 123.465 608.294 120.021C614.676 116.476 621.919 114.703 630.023 114.703C638.127 114.703 645.319 116.476 651.6 120.021C657.881 123.567 662.743 128.48 666.188 134.761C669.632 141.041 671.354 148.132 671.354 156.034C671.354 158.567 671.101 161.504 670.594 164.847H612.092C613.308 169.001 615.841 172.293 619.69 174.724C623.641 177.054 628.503 178.219 634.277 178.219C642.888 178.219 650.739 175.636 657.83 170.47L667.403 185.969C662.946 189.514 657.729 192.249 651.752 194.174C645.775 196.099 639.343 197.061 632.454 197.061ZM648.561 149.044C647.548 144.384 645.421 140.687 642.179 137.952C639.039 135.115 635.037 133.697 630.175 133.697C625.414 133.697 621.361 135.115 618.019 137.952C614.777 140.687 612.7 144.384 611.788 149.044H648.561Z" fill="#FFBF00"/>
<path d="M699.536 121.291H677.047V100.322H699.536V76.7688H721.417V100.322H744.058V121.291H721.417V144.844H699.536V121.291Z" fill="#FFBF00"/>
</svg>
